<?xml version="1.0" standalone="no"?>
<!DOCTYPE svg PUBLIC "-//W3C//DTD SVG 20010904//EN"
 "http://www.w3.org/TR/2001/REC-SVG-20010904/DTD/svg10.dtd">
<svg version="1.0" xmlns="http://www.w3.org/2000/svg"
 width="700.000000pt" height="700.000000pt" viewBox="0 0 700.000000 700.000000"
 preserveAspectRatio="xMidYMid meet">
<metadata>
Created by potrace 1.11, written by Peter Selinger 2001-2013
</metadata>
<g transform="translate(0.000000,700.000000) scale(0.100000,-0.100000)"
fill="#000000" stroke="none">
<path d="M3299 6996 c-2 -2 -49 -7 -104 -10 -54 -4 -101 -9 -105 -10 -3 -2
-34 -7 -69 -10 -35 -4 -85 -11 -110 -16 -59 -12 -99 -20 -136 -26 -125 -21
-489 -134 -612 -190 -28 -13 -55 -24 -58 -24 -13 0 -310 -153 -384 -197 -764
-460 -1303 -1144 -1569 -1993 -47 -149 -93 -363 -118 -539 -3 -25 -8 -57 -10
-71 -19 -116 -26 -533 -12 -701 7 -78 22 -194 33 -260 3 -14 7 -41 9 -60 17
-128 140 -567 190 -674 8 -16 26 -59 41 -95 33 -80 146 -307 180 -360 14 -22
25 -42 25 -44 0 -6 173 -267 194 -293 8 -10 52 -65 98 -123 97 -122 355 -385
479 -487 326 -270 710 -486 1104 -621 132 -46 183 -60 380 -108 77 -19 282
-52 360 -59 39 -4 81 -8 95 -11 14 -2 89 -6 167 -10 133 -5 141 -4 137 13 -2
10 -11 47 -20 83 -9 36 -17 72 -19 80 -11 52 -60 180 -108 280 -171 356 -485
539 -846 496 -78 -10 -87 -1 -62 64 40 106 118 186 232 239 270 127 550 -71
782 -551 25 -51 49 -106 52 -121 8 -31 25 -37 25 -8 0 37 72 238 122 341 43
89 132 236 175 290 7 8 26 33 43 55 143 182 344 373 570 542 133 99 382 260
475 309 17 8 62 33 100 55 66 38 450 229 460 229 4 0 27 10 140 60 103 46 472
180 494 180 14 0 -2 -162 -25 -255 -57 -231 -155 -438 -300 -642 -218 -303
-534 -550 -894 -700 -47 -19 -155 -59 -240 -88 -440 -148 -707 -315 -909 -568
-58 -74 -140 -225 -160 -297 -7 -25 -15 -54 -18 -64 -5 -18 0 -19 123 -12 127
6 166 9 254 21 25 4 61 8 80 11 19 2 44 6 55 9 11 2 67 13 125 25 58 11 155
34 215 51 61 17 117 32 125 34 30 7 168 58 290 107 206 84 464 223 655 356
217 150 490 393 638 567 17 21 43 50 56 64 27 30 173 225 218 291 124 185 239
395 318 585 20 50 43 104 50 120 65 152 171 554 190 718 2 23 7 62 10 87 4 25
10 74 15 110 8 66 6 664 -3 710 -3 14 -8 50 -12 80 -18 160 -80 435 -142 625
-96 297 -238 589 -413 850 -61 91 -179 253 -205 281 -5 7 -35 40 -65 75 -78
91 -271 284 -362 361 -153 131 -437 334 -520 371 -15 6 -28 15 -28 19 0 5 -5
8 -10 8 -6 0 -41 17 -78 38 -283 160 -722 308 -1092 368 -62 10 -66 11 -145
18 -38 4 -81 10 -95 12 -28 6 -516 15 -521 10z m399 -2843 c151 -101 295 -278
367 -454 14 -35 30 -73 35 -84 24 -56 64 -250 76 -375 6 -59 6 -335 0 -385 -2
-16 -7 -61 -11 -100 -4 -38 -9 -79 -11 -90 -2 -10 -6 -37 -10 -60 -39 -273
-160 -657 -284 -906 -74 -146 -137 -299 -192 -461 -27 -81 -51 -155 -53 -165
-2 -10 -17 -72 -34 -138 -16 -66 -33 -144 -37 -174 l-7 -55 -22 47 c-17 34
-24 72 -29 144 -17 285 -85 532 -218 798 -51 103 -113 251 -141 340 -32 102
-57 212 -83 365 -3 19 -7 132 -9 250 -4 304 29 514 124 794 57 168 100 259
234 506 45 83 82 195 91 275 3 22 5 41 5 42 2 5 157 -80 209 -114z"/>
</g>
</svg>
